<svg xmlns="http://www.w3.org/2000/svg" viewBox="0 0 64 64">
  <rect width="64" height="64" rx="14" fill="#123B63"/>
  <path d="M18 17.5a5.5 5.5 0 0 1 5.5-5.5H46v34.5H23.5a5.5 5.5 0 0 0-5.5 5.5V17.5Z" fill="#E8A33D"/>
  <path d="M23.5 12H46v37H23.5A5.5 5.5 0 0 0 18 54.5V23.5a5.5 5.5 0 0 1 5.5-5.5Z" fill="#F6F8FB"/>
  <path d="M29 20h11M29 27h11M29 34h7" stroke="#123B63" stroke-linecap="round" stroke-width="3"/>
  <path d="M18 22.5A5.5 5.5 0 0 1 23.5 17H46" fill="none" stroke="#123B63" stroke-linecap="round" stroke-width="3"/>
</svg>
